<svg id="Layer_1" data-name="Layer 1" xmlns="http://www.w3.org/2000/svg" width="54" height="54" viewBox="0 0 54 54"><defs><style>.cls-1,.cls-2{fill:none;stroke:#fff;}.cls-1{stroke-linecap:round;stroke-linejoin:round;stroke-width:0.7px;}.cls-2{stroke-miterlimit:10;}</style></defs><line class="cls-1" x1="27" y1="34.2" x2="27" y2="48.4"/><line class="cls-1" x1="32.7" y1="45.9" x2="32.7" y2="36.8"/><line class="cls-1" x1="21.4" y1="36.8" x2="27" y2="34.2"/><line class="cls-1" x1="21.4" y1="45.9" x2="27" y2="48.4"/><line class="cls-1" x1="21.4" y1="36.8" x2="21.4" y2="45.9"/><line class="cls-1" x1="21.4" y1="22.5" x2="21.4" y2="24.6"/><line class="cls-1" x1="32.7" y1="24.6" x2="32.7" y2="22.5"/><line class="cls-1" x1="32.7" y1="36.8" x2="32.7" y2="29.6"/><line class="cls-1" x1="32.7" y1="29.6" x2="27" y2="27.1"/><line class="cls-1" x1="27" y1="20" x2="38.3" y2="25.1"/><line class="cls-1" x1="38.3" y1="25.1" x2="38.3" y2="18"/><line class="cls-1" x1="38.3" y1="18" x2="27" y2="12.9"/><line class="cls-1" x1="27" y1="7.8" x2="10.1" y2="15.4"/><line class="cls-1" x1="27" y1="12.9" x2="15.8" y2="18"/><line class="cls-1" x1="15.8" y1="18" x2="15.8" y2="25.1"/><line class="cls-1" x1="15.8" y1="25.1" x2="27" y2="20"/><line class="cls-1" x1="21.4" y1="29.6" x2="21.4" y2="36.8"/><line class="cls-1" x1="32.7" y1="45.9" x2="27" y2="48.4"/><line class="cls-1" x1="38.3" y1="34.2" x2="32.7" y2="36.8"/><line class="cls-1" x1="27" y1="34.2" x2="32.7" y2="36.8"/><line class="cls-1" x1="38.3" y1="34.2" x2="38.3" y2="27.1"/><line class="cls-1" x1="38.3" y1="27.1" x2="32.7" y2="29.6"/><line class="cls-1" x1="38.3" y1="27.1" x2="32.7" y2="24.6"/><line class="cls-1" x1="32.7" y1="24.6" x2="27" y2="27.1"/><line class="cls-1" x1="43.9" y1="22.5" x2="38.3" y2="25.1"/><line class="cls-1" x1="43.9" y1="22.5" x2="43.9" y2="15.4"/><line class="cls-1" x1="43.9" y1="15.4" x2="38.3" y2="18"/><line class="cls-1" x1="43.9" y1="15.4" x2="32.7" y2="10.3"/><line class="cls-1" x1="27" y1="7.8" x2="32.7" y2="10.3"/><line class="cls-1" x1="10.1" y1="15.4" x2="15.8" y2="18"/><line class="cls-1" x1="10.1" y1="15.4" x2="10.1" y2="22.5"/><line class="cls-1" x1="10.1" y1="22.5" x2="15.8" y2="25.1"/><line class="cls-1" x1="21.4" y1="24.6" x2="27" y2="27.1"/><line class="cls-1" x1="27" y1="20" x2="27" y2="27.1"/><line class="cls-1" x1="27" y1="12.9" x2="27" y2="20"/><line class="cls-1" x1="27" y1="27.1" x2="27" y2="34.2"/><line class="cls-1" x1="21.4" y1="24.6" x2="15.8" y2="27.1"/><line class="cls-1" x1="15.8" y1="27.1" x2="21.4" y2="29.6"/><line class="cls-1" x1="27" y1="27.1" x2="21.4" y2="29.6"/><line class="cls-1" x1="15.8" y1="27.1" x2="15.8" y2="34.2"/><line class="cls-1" x1="15.8" y1="34.2" x2="21.4" y2="36.8"/><circle class="cls-2" cx="27" cy="27.1" r="25.71"/></svg>